<?xml version="1.0" encoding="utf-8"?>
<!-- Generator: Adobe Illustrator 27.9.3, SVG Export Plug-In . SVG Version: 9.03 Build 53313)  -->
<svg version="1.1" id="Layer_1" xmlns="http://www.w3.org/2000/svg" xmlns:xlink="http://www.w3.org/1999/xlink" x="0px" y="0px"
	 viewBox="0 0 131.03 71.07" style="enable-background:new 0 0 131.03 71.07;" xml:space="preserve">
<style type="text/css">
	.st0{fill:#FFFFFF;}
</style>
<rect class="st0" width="131.03" height="71.07"/>
<g>
	<path d="M29.93,32.02h-13.1V12h13.1c2.89,0,5.23,2.34,5.23,5.23v9.55C35.16,29.68,32.82,32.02,29.93,32.02z"/>
	<path d="M29.93,58.41h-13.1V37.48h13.1c2.89,0,5.23,2.34,5.23,5.23v10.46C35.16,56.07,32.82,58.41,29.93,58.41z"/>
</g>
<path d="M59.18,58.41h-9.22V12h9.22c6.12,0,11.08,4.96,11.08,11.08v24.26C70.25,53.45,65.3,58.41,59.18,58.41z"/>
<path d="M99.17,25.5H85.36v-9.5c0-2.12,1.72-3.85,3.85-3.85h6.11c2.12,0,3.85,1.72,3.85,3.85V25.5z"/>
<rect x="85.36" y="28.25" width="13.81" height="15.33"/>
<path d="M99.17,58.92h-8.29c-3.04,0-5.51-2.47-5.51-5.51v-7.08h13.81V58.92z"/>
<path d="M111.72,58.92h-9.8V46.33h9.8c1.88,0,3.4,1.52,3.4,3.4v5.79C115.12,57.4,113.6,58.92,111.72,58.92z"/>
</svg>
